<svg width="17" height="22" viewBox="0 0 17 22" fill="none" xmlns="http://www.w3.org/2000/svg">
<path d="M13.5352 10.1836C13.5352 10.2695 13.4062 12.8047 16.1992 14.1367C15.6836 15.6836 13.8789 19.207 11.7734 19.25C10.5703 19.25 9.88281 18.4766 8.50781 18.4766C7.08984 18.4766 6.31641 19.207 5.24219 19.25C3.17969 19.293 1.20312 15.4258 0.644531 13.8789C0.214844 12.6758 0 11.5156 0 10.3984C0 6.57422 2.57812 4.68359 4.98438 4.64062C6.14453 4.64062 7.60547 5.5 8.25 5.5C8.85156 5.5 10.5273 4.51172 12.0312 4.59766C13.6641 4.72656 14.8672 5.37109 15.6836 6.53125C14.2656 7.39062 13.5352 8.59375 13.5352 10.1836ZM11.1289 3.13672C10.2695 4.08203 9.23828 4.68359 8.12109 4.59766C8.03516 3.39453 8.46484 2.36328 9.23828 1.50391C9.92578 0.6875 11.0859 0.0429688 12.1602 0C12.1602 0.472656 12.2891 1.71875 11.1289 3.13672Z" fill="currentColor"/>
</svg>
