<svg width="48" height="48" viewBox="0 0 48 48" fill="none" xmlns="http://www.w3.org/2000/svg">
<rect x="1.6" y="1.6" width="44.8" height="44.8" rx="11.2" fill="white" stroke="#302E2B" stroke-width="3.2"/>
<path d="M13 10H29.5493C31.0082 10 32.3076 10.3191 33.4473 10.9574C34.5871 11.5957 35.4761 12.4847 36.1144 13.6244C36.7526 14.7642 37.0718 16.0635 37.0718 17.5224V17.7618C37.0718 19.1751 36.7184 20.3946 36.0118 21.4204C35.3051 22.4462 34.3363 23.2098 33.1054 23.7113V23.9849C34.3591 24.4636 35.3279 25.193 36.0118 26.1732C36.7184 27.1306 37.0718 28.2818 37.0718 29.6267V29.866C37.0718 31.3021 36.7526 32.5901 36.1144 33.7298C35.4761 34.8696 34.5871 35.7586 33.4473 36.3969C32.3076 37.0351 31.0082 37.3543 29.5493 37.3543H13V10ZM27.3952 30.926C27.8055 30.926 28.136 30.8006 28.3868 30.5499C28.6603 30.2764 28.7971 29.9344 28.7971 29.5241V28.088C28.7971 27.6777 28.6603 27.3472 28.3868 27.0964C28.136 26.8229 27.8055 26.6861 27.3952 26.6861H21.2063V30.926H27.3952ZM27.3952 20.4288C27.8055 20.4288 28.136 20.3034 28.3868 20.0527C28.6603 19.7791 28.7971 19.4372 28.7971 19.0269V17.8644C28.7971 17.454 28.6603 17.1235 28.3868 16.8728C28.136 16.5992 27.8055 16.4624 27.3952 16.4624H21.2063V20.4288H27.3952Z" fill="#302E2B"/>
</svg>
