<svg width="23" height="23" viewBox="0 0 23 23" fill="none" xmlns="http://www.w3.org/2000/svg">
<g opacity="0.8">
<rect x="0.736751" y="0.736751" width="20.629" height="20.629" rx="5.15726" stroke="currentColor" stroke-width="1.4735"/>
<path d="M5.82617 4.70215H13.4466C14.1184 4.70215 14.7167 4.8491 15.2415 5.143C15.7664 5.4369 16.1757 5.84627 16.4696 6.37109C16.7635 6.89592 16.9105 7.49422 16.9105 8.16599V8.27621C16.9105 8.92699 16.7478 9.48855 16.4224 9.9609C16.097 10.4332 15.6509 10.7849 15.0841 11.0158V11.1418C15.6614 11.3622 16.1075 11.6981 16.4224 12.1494C16.7478 12.5903 16.9105 13.1203 16.9105 13.7396V13.8499C16.9105 14.5111 16.7635 15.1042 16.4696 15.629C16.1757 16.1538 15.7664 16.5632 15.2415 16.8571C14.7167 17.151 14.1184 17.298 13.4466 17.298H5.82617V4.70215ZM12.4547 14.3379C12.6437 14.3379 12.7959 14.2802 12.9113 14.1647C13.0373 14.0388 13.1003 13.8813 13.1003 13.6924V13.0311C13.1003 12.8422 13.0373 12.69 12.9113 12.5745C12.7959 12.4486 12.6437 12.3856 12.4547 12.3856H9.60491V14.3379H12.4547ZM12.4547 9.5043C12.6437 9.5043 12.7959 9.44657 12.9113 9.33111C13.0373 9.20515 13.1003 9.0477 13.1003 8.85876V8.32344C13.1003 8.13451 13.0373 7.98231 12.9113 7.86684C12.7959 7.74089 12.6437 7.67791 12.4547 7.67791H9.60491V9.5043H12.4547Z" fill="currentColor"/>
</g>
</svg>
