<svg width="16" height="19" viewBox="0 0 16 19" fill="none" xmlns="http://www.w3.org/2000/svg">
<path d="M13.6602 7.31641L8.59766 12.3789C8.28125 12.6953 7.71875 12.6953 7.40234 12.3789L2.33984 7.31641C2.09375 7.07031 2.02344 6.71875 2.16406 6.40234C2.30469 6.08594 2.58594 5.875 2.9375 5.875H5.75V1.9375C5.75 1.02344 6.52344 0.25 7.4375 0.25H8.5625C9.51172 0.25 10.25 1.02344 10.25 1.9375V5.875H13.0625C13.4141 5.875 13.7305 6.08594 13.8359 6.40234C13.9766 6.71875 13.9062 7.07031 13.6602 7.31641ZM3.60547 7L8 11.3945L12.3945 7H9.6875C9.37109 7 9.125 6.75391 9.125 6.4375V1.9375C9.125 1.62109 8.87891 1.375 8.5625 1.375H7.4375C7.12109 1.375 6.875 1.62109 6.875 1.9375V6.4375C6.875 6.75391 6.62891 7 6.3125 7H3.60547ZM1.25 12.0625V14.875C1.25 16.1055 2.26953 17.125 3.5 17.125H12.5C13.7305 17.125 14.75 16.1055 14.75 14.875V12.0625C14.75 11.7461 14.9961 11.5 15.3125 11.5C15.6289 11.5 15.875 11.7461 15.875 12.0625V14.875C15.875 16.7383 14.3633 18.25 12.5 18.25H3.5C1.63672 18.25 0.125 16.7383 0.125 14.875V12.0625C0.125 11.7461 0.371094 11.5 0.6875 11.5C1.00391 11.5 1.25 11.7461 1.25 12.0625Z" fill="#6C6965"/>
</svg>
