<svg width="16" height="18" viewBox="0 0 16 18" fill="none" xmlns="http://www.w3.org/2000/svg">
<path d="M8.40234 1.72266C4.64062 2.00391 1.6875 5.16797 1.6875 9C1.6875 13.043 4.95703 16.3125 9 16.3125C10.1602 16.3125 11.2852 16.0312 12.2695 15.5391C8.61328 14.7305 5.90625 11.4961 5.90625 7.59375C5.90625 5.27344 6.85547 3.19922 8.40234 1.72266ZM0 9C0 4.04297 4.04297 0 9 0C9.66797 0 10.3359 0.0703125 11.0039 0.210938C11.3555 0.316406 11.6016 0.597656 11.6367 0.949219C11.6719 1.30078 11.4961 1.65234 11.1797 1.79297C9.07031 2.84766 7.59375 5.0625 7.59375 7.59375C7.59375 11.1797 10.4766 14.0625 14.0625 14.0625C14.2383 14.0625 14.4141 14.0625 14.5898 14.0273C14.9414 14.0273 15.2578 14.2031 15.4336 14.5547C15.5742 14.8711 15.5039 15.2578 15.2227 15.5039C13.6055 17.0508 11.4258 18 9 18C4.04297 18 0 13.957 0 9Z" fill="#FEFBF6"/>
</svg>
