<svg width="18" height="18" viewBox="0 0 18 18" fill="none" xmlns="http://www.w3.org/2000/svg">
<path d="M8.15625 17.1562V15.1875C8.15625 14.7305 8.54297 14.3438 9 14.3438C9.45703 14.3438 9.84375 14.7305 9.84375 15.1875V17.1562C9.84375 17.6133 9.45703 18 9 18C8.54297 18 8.15625 17.6133 8.15625 17.1562ZM8.15625 2.8125V0.84375C8.15625 0.386719 8.54297 0 9 0C9.45703 0 9.84375 0.386719 9.84375 0.84375V2.8125C9.84375 3.26953 9.45703 3.65625 9 3.65625C8.54297 3.65625 8.15625 3.26953 8.15625 2.8125ZM2.63672 2.63672C2.95312 2.32031 3.51562 2.32031 3.83203 2.63672L5.23828 4.04297C5.55469 4.35938 5.55469 4.88672 5.23828 5.23828C4.88672 5.55469 4.35938 5.55469 4.04297 5.23828L2.63672 3.83203C2.32031 3.51562 2.32031 2.95312 2.63672 2.63672ZM12.7969 12.7969C13.1133 12.4453 13.6406 12.4453 13.957 12.7969L15.3633 14.168C15.6797 14.5195 15.6797 15.0469 15.3633 15.3633C15.0469 15.6797 14.4844 15.6797 14.168 15.3633L12.7969 13.957C12.4453 13.6406 12.4453 13.1133 12.7969 12.7969ZM0 9C0 8.54297 0.386719 8.15625 0.84375 8.15625H2.8125C3.26953 8.15625 3.65625 8.54297 3.65625 9C3.65625 9.45703 3.26953 9.84375 2.8125 9.84375H0.84375C0.386719 9.84375 0 9.45703 0 9ZM14.3438 9C14.3438 8.54297 14.7305 8.15625 15.1875 8.15625H17.1562C17.6133 8.15625 18 8.54297 18 9C18 9.45703 17.6133 9.84375 17.1562 9.84375H15.1875C14.7305 9.84375 14.3438 9.45703 14.3438 9ZM2.63672 15.3633C2.32031 15.0469 2.32031 14.4844 2.63672 14.168L4.04297 12.7969C4.35938 12.4453 4.88672 12.4453 5.23828 12.7969C5.55469 13.1133 5.55469 13.6406 5.23828 13.957L3.83203 15.3633C3.51562 15.6797 2.95312 15.6797 2.63672 15.3633ZM12.7969 5.23828C12.4453 4.88672 12.4453 4.35938 12.7969 4.04297L14.168 2.63672C14.5195 2.32031 15.0469 2.32031 15.3633 2.63672C15.6797 2.95312 15.6797 3.51562 15.3633 3.83203L13.957 5.23828C13.6406 5.55469 13.1133 5.55469 12.7969 5.23828ZM11.25 9C11.25 7.76953 10.2305 6.75 9 6.75C7.76953 6.75 6.75 7.76953 6.75 9C6.75 10.2305 7.76953 11.25 9 11.25C10.2305 11.25 11.25 10.2305 11.25 9ZM5.0625 9C5.0625 6.82031 6.82031 5.0625 9 5.0625C11.1797 5.0625 12.9375 6.82031 12.9375 9C12.9375 11.1797 11.1797 12.9375 9 12.9375C6.82031 12.9375 5.0625 11.1797 5.0625 9Z" fill="#161411"/>
</svg>
